# xmcd
#
# Track frame offsets:
#	150
#	20015
#	38765
#	64378
#	108140
#	127640
#	154040
#	182540
#	219290
#	257428
#	286790
#
# Disc length: 4329 seconds
#
# Revision: 0
# Processed by: cddbd v1.5.2PL0 Copyright (c) Steve Scherf et al.
# Submitted via: EasyCDDAExtractor 16.0.4.1
#
DISCID=8610e70b
DTITLE=Albert Castiglia - Wild And Free
DYEAR=2020
DGENRE=Blues
TTITLE0=Let The Big Dog Eat
TTITLE1=Hoodoo On Me
TTITLE2=I Been Up All Night
TTITLE3=Heavy
TTITLE4=Get Your Ass In The Van
TTITLE5=Searching The Desert For The Blues
TTITLE6=Keep On Swinging
TTITLE7=Too Much Seconal
TTITLE8=Lovin' Cup
TTITLE9=I Tried To Tell Ya
TTITLE10=Boogie Funk
EXTD=
EXTT0=
EXTT1=
EXTT2=
EXTT3=
EXTT4=
EXTT5=
EXTT6=
EXTT7=
EXTT8=
EXTT9=
EXTT10=
PLAYORDER=
